<svg width="152" height="61" viewBox="0 0 152 61" fill="none" xmlns="http://www.w3.org/2000/svg">
<path fill-rule="evenodd" clip-rule="evenodd" d="M47.4541 48.7399H45.7928C45.74 48.7403 45.6881 48.7526 45.641 48.7759C45.5939 48.7991 45.5529 48.8327 45.5212 48.8739L42.5487 53.7771C42.4115 53.9554 42.3037 53.9541 42.1679 53.7732L39.2886 48.8765C39.2568 48.8346 39.2154 48.8004 39.1679 48.7767C39.1203 48.753 39.0678 48.7404 39.0144 48.7399H37.385C37.2938 48.7405 37.2066 48.7765 37.1424 48.84C37.0783 48.9034 37.0425 48.989 37.0429 49.0782V58.9185C37.0429 59.1059 37.196 59.2569 37.385 59.2569H39.0104C39.0556 59.2567 39.1003 59.2478 39.142 59.2307C39.1837 59.2136 39.2215 59.1886 39.2533 59.1572C39.2851 59.1257 39.3102 59.0885 39.3272 59.0475C39.3443 59.0066 39.3528 58.9627 39.3525 58.9185V53.8591C39.3525 53.5338 39.668 53.3959 39.8637 53.6587L42.0947 57.2555C42.2305 57.4364 42.5047 57.4377 42.6432 57.2581L44.9461 53.6522C45.1431 53.3933 45.4573 53.5325 45.4573 53.8565V58.9185C45.4573 59.1059 45.6104 59.2569 45.7994 59.2569H47.4541C47.5454 59.2562 47.6328 59.2202 47.6971 59.1569C47.7614 59.0935 47.7975 59.0078 47.7975 58.9185V49.0782C47.7975 48.9889 47.7614 48.9032 47.6971 48.8399C47.6328 48.7765 47.5454 48.7405 47.4541 48.7399ZM59.038 55.1396H56.8682C56.6379 55.1396 56.4808 54.9015 56.5647 54.6802L57.6456 51.8564C57.6671 51.7948 57.7077 51.7413 57.7618 51.7034C57.8159 51.6655 57.8808 51.645 57.9473 51.6449C58.0139 51.6447 58.0788 51.6649 58.1331 51.7026C58.1874 51.7403 58.2282 51.7936 58.25 51.8551L59.3402 54.6802C59.4254 54.9002 59.267 55.1396 59.038 55.1396ZM59.094 48.9416C59.0703 48.8831 59.0295 48.8327 58.9767 48.7968C58.9239 48.7609 58.8614 48.7411 58.7971 48.7399H57.1105C57.0462 48.7411 56.9837 48.7609 56.9309 48.7968C56.878 48.8327 56.8373 48.8831 56.8136 48.9416L52.6044 58.7845C52.5099 59.007 52.667 59.2569 52.9026 59.2569H54.5959C54.6628 59.2562 54.7279 59.2353 54.7822 59.1971C54.8365 59.1589 54.8775 59.1053 54.8994 59.0435L55.5237 57.3973C55.5457 57.3358 55.5865 57.2824 55.6405 57.2443C55.6946 57.2061 55.7593 57.185 55.8259 57.1839H60.0977C60.2308 57.1839 60.3506 57.2672 60.3998 57.3947L61.0375 59.0448C61.0594 59.1062 61.1002 59.1596 61.1543 59.1975C61.2083 59.2355 61.2731 59.2562 61.3397 59.2569H63.005C63.2406 59.2569 63.3977 59.007 63.3032 58.7845L59.094 48.9416ZM88.0592 53.7264C88.0175 53.669 87.996 53.5999 87.9979 53.5295C87.9999 53.4591 88.0251 53.3912 88.0698 53.336L91.1382 49.5987C91.31 49.3905 91.1595 49.0769 90.8893 49.0769H89.1934C89.1448 49.077 89.0969 49.088 89.0533 49.109C89.0097 49.1299 88.9715 49.1604 88.9418 49.1979L85.4913 53.5208C85.3023 53.7589 84.9176 53.6262 84.9176 53.323V49.397C84.9183 49.313 84.885 49.2322 84.8248 49.1722C84.7647 49.1122 84.6827 49.0779 84.5968 49.0769H83.0766C82.9907 49.0779 82.9087 49.1122 82.8485 49.1722C82.7884 49.2322 82.7551 49.313 82.7558 49.397V58.9368C82.7558 59.1137 82.8995 59.2569 83.0766 59.2569H84.5968C84.7738 59.2569 84.9176 59.1137 84.9176 58.9368V57.2763C84.9176 57.2021 84.9442 57.1319 84.9895 57.0746L86.2847 55.4987C86.3158 55.4604 86.3557 55.4297 86.4012 55.4093C86.4466 55.3889 86.4964 55.3794 86.5464 55.3814C86.5964 55.3834 86.6452 55.397 86.6888 55.421C86.7324 55.445 86.7696 55.4788 86.7972 55.5196L89.3078 59.1202C89.3373 59.1621 89.3766 59.1964 89.4225 59.2202C89.4684 59.244 89.5195 59.2566 89.5714 59.2569H91.4617C91.724 59.2569 91.8757 58.9602 91.7213 58.7494L88.0592 53.7264ZM105.843 57.2932H100.836C100.786 57.2937 100.737 57.2847 100.691 57.2666C100.645 57.2485 100.603 57.2217 100.567 57.1877C100.532 57.1538 100.504 57.1133 100.484 57.0687C100.465 57.024 100.454 56.9761 100.454 56.9276V55.4337C100.454 55.232 100.626 55.0693 100.836 55.0693H104.188C104.237 55.0697 104.287 55.0604 104.333 55.0422C104.379 55.0239 104.421 54.997 104.456 54.9629C104.491 54.9288 104.519 54.8883 104.539 54.8436C104.558 54.7989 104.568 54.7509 104.569 54.7024V53.5872C104.568 53.4894 104.527 53.396 104.455 53.3274C104.384 53.2589 104.288 53.2208 104.188 53.2215H100.836C100.786 53.222 100.737 53.213 100.691 53.1949C100.645 53.1768 100.603 53.15 100.567 53.116C100.532 53.0821 100.504 53.0416 100.484 52.997C100.465 52.9523 100.454 52.9044 100.454 52.8558V51.4049C100.454 51.2032 100.626 51.0392 100.836 51.0392H105.492C105.542 51.0398 105.591 51.0307 105.637 51.0126C105.683 50.9945 105.725 50.9677 105.761 50.9338C105.796 50.8998 105.825 50.8593 105.844 50.8147C105.864 50.7701 105.874 50.7221 105.874 50.6736V49.4426C105.874 49.394 105.864 49.3459 105.845 49.3012C105.825 49.2565 105.797 49.216 105.761 49.182C105.726 49.148 105.684 49.1212 105.638 49.1032C105.591 49.0851 105.542 49.0762 105.492 49.0769H98.5583C98.5086 49.0764 98.4593 49.0854 98.4133 49.1035C98.3672 49.1216 98.3252 49.1484 98.2898 49.1824C98.2543 49.2163 98.226 49.2568 98.2065 49.3014C98.187 49.3461 98.1767 49.394 98.1762 49.4426V58.8912C98.1762 59.0929 98.3479 59.2569 98.5583 59.2569H105.843C105.943 59.2576 106.039 59.2195 106.11 59.1509C106.181 59.0824 106.222 58.989 106.223 58.8912V57.6589C106.222 57.5611 106.181 57.4677 106.11 57.3992C106.039 57.3306 105.943 57.2925 105.843 57.2932ZM117.99 48.7399H110.241C110.07 48.7399 109.933 48.8895 109.933 49.0743V50.4341C109.933 50.6189 110.07 50.7686 110.241 50.7686H112.763C112.934 50.7686 113.071 50.9182 113.071 51.1017V58.9237C113.071 59.1072 113.209 59.2569 113.378 59.2569H114.837C115.006 59.2569 115.145 59.1072 115.145 58.9237V51.1017C115.145 50.9182 115.282 50.7686 115.452 50.7686H117.99C118.159 50.7686 118.297 50.6189 118.297 50.4341V49.0743C118.297 48.8895 118.159 48.7399 117.99 48.7399ZM73.1286 54.5007C72.712 54.5241 72.3046 54.5293 71.876 54.5228C71.7872 54.5201 71.7031 54.4836 71.6414 54.4211C71.5797 54.3587 71.5455 54.2752 71.5459 54.1883V51.064C71.5459 50.8805 71.6949 50.7295 71.8786 50.7308C72.254 50.7321 72.6241 50.7373 73.0394 50.7608C74.3999 50.8193 75.4303 51.4478 75.4303 52.6164C75.4303 53.647 74.7127 54.3953 73.1286 54.5007ZM77.6693 52.675C77.6693 50.386 75.9374 48.7555 72.921 48.7399C71.844 48.7399 70.7804 48.7659 69.6369 48.7815C69.5482 48.7839 69.4639 48.82 69.402 48.8822C69.3401 48.9445 69.3054 49.0278 69.3055 49.1146V58.9237C69.3055 59.1072 69.4546 59.2569 69.6383 59.2569H71.2131C71.3968 59.2569 71.5459 59.1072 71.5459 58.9237V56.8417C71.5459 56.5814 71.5978 56.5085 71.88 56.5085C72.2194 56.5085 72.7333 56.5203 73.114 56.5203C73.1872 56.5203 73.2631 56.5124 73.3363 56.5098L73.3283 56.5151C73.6984 56.5151 73.7969 56.4825 73.9007 56.6868L75.0988 59.0734C75.1255 59.1283 75.1675 59.1746 75.2201 59.2071C75.2726 59.2396 75.3335 59.2568 75.3956 59.2569H77.2034C77.451 59.2569 77.6121 58.9953 77.5002 58.7728L76.1145 56.0336C76.0787 55.9613 76.0701 55.879 76.0903 55.8011C76.1106 55.7233 76.1582 55.6549 76.225 55.6081C77.0809 54.986 77.6693 54.0322 77.6693 52.675ZM141.143 19.6704C143.872 19.6704 142.314 30.5049 137.535 31.2245C137.319 30.4263 137.202 29.6052 137.188 28.7794C137.188 25.2399 138.55 19.6704 141.143 19.6704ZM73.3256 36.2813C68.379 36.2813 71.8374 19.6496 75.8296 19.6496C78.4827 19.6496 78.058 36.2813 73.3256 36.2813ZM56.0975 19.5936C58.9342 19.5936 57.2503 30.0976 52.5898 31.8231C52.237 30.7066 52.064 29.6161 52.064 28.7794C52.064 25.2399 53.503 19.5936 56.0975 19.5936ZM149.915 29.1646C149.776 29.2999 148.491 36.8578 142.951 36.8578C140.797 36.8578 139.278 35.2767 138.341 33.3873C145.12 31.9285 147.39 26.7273 147.39 23.167C147.39 19.0184 144.359 17.5207 141.778 17.5207C137.558 17.5207 132.068 21.3269 132.068 28.7794C132.068 29.4509 132.108 30.0976 132.183 30.7183C130.722 30.2876 129.459 29.5329 128.596 28.2459C129.862 22.7453 129.639 17.4816 127.016 17.4816C125.543 17.4816 124.289 19.3607 124.289 23.4571C124.289 25.0681 124.723 26.8743 125.605 28.5204C125.066 31.015 123.217 37.1089 120.865 37.1089C117.622 37.1089 118.623 22.1467 118.623 19.9359C118.623 18.1323 114.134 16.2415 113.148 17.1992C112.719 17.6144 112.644 20.0543 112.644 23.2099C112.644 25.7943 112.851 28.8588 113.429 31.6891C113.117 33.2272 111.782 37.1792 109.286 37.1792C105.418 37.1792 107.377 23.0095 107.377 20.7283C107.377 19.0991 103.058 17.5675 102.003 18.5916C101.587 18.9963 101.298 21.8618 101.298 26.3252C101.298 28.1808 101.407 30.151 101.689 32.0196C101.281 33.9976 99.6778 37.1792 97.0767 37.1792C92.9407 37.1792 94.7697 21.6496 95.8706 12.0748C96.5565 11.953 97.2465 11.854 97.9393 11.7781C99.7497 11.5829 101.97 11.2393 101.97 12.3103C101.97 14.8296 103.694 15.6065 104.972 15.6065C106.366 15.6065 107.625 14.5355 107.625 12.486C107.625 10.4482 105.825 8.5652 102.6 8.5652C100.453 8.5652 98.32 8.80594 96.2007 9.14297C96.3724 7.54109 96.4856 6.27363 96.4856 5.51498C96.4856 3.37957 91.9716 1.33915 91.081 2.2032C90.9093 2.37107 90.3049 5.71408 89.7844 10.3428C86.6481 10.9518 83.5452 11.484 80.4781 11.484C79.4172 11.484 79.5529 14.6032 83.1844 14.6032C85.273 14.6032 87.3177 14.1542 89.4543 13.6051C89.1641 16.8453 88.9524 20.4342 88.9524 23.8905C88.9524 26.9823 89.1428 29.6916 89.5408 31.9845C89.1348 33.7061 87.8475 37.1792 85.5166 37.1792C80.9733 37.1792 83.1272 21.9307 83.1272 19.6496C83.1272 18.5656 78.9938 16.2285 78.1392 17.0561C78.0194 17.1732 77.9489 17.8174 77.9489 17.8174C77.9489 17.8174 77.3977 17.4244 75.8722 17.4244C70.0736 17.4244 65.4184 24.3758 65.4184 30.7196C65.4184 31.0241 65.4344 31.3156 65.4517 31.6071C64.5531 33.6475 62.2821 37.1792 58.1674 37.1792C56.1188 37.1792 54.6185 35.8441 53.6161 34.1537C59.9712 32.4087 62.4911 26.9797 62.4911 23.5118C62.4911 19.4531 58.9422 17.4426 56.361 17.4426C51.8816 17.4426 46.9442 21.8006 46.9442 29.1555C46.9442 31.2974 47.3649 33.1517 48.0797 34.7094C47.2863 35.9443 46.039 37.1792 44.3631 37.1792C39.7186 37.1792 42.8322 22.0283 42.8322 20.4121C42.8322 20.0113 42.8375 19.2579 42.1 18.753C41.127 18.0893 35.5307 17.3684 33.635 17.004C33.6497 16.602 33.655 16.2324 33.655 15.9032C33.655 12.9753 31.7607 12.3012 30.544 12.3012C28.4847 12.3012 28.0534 14.5472 28.0534 15.0899C28.0534 15.6325 28.2065 17.5324 30.2658 18.6931C30.2658 24.1637 26.6769 37.0751 17.0405 37.0751C9.77223 37.0751 7.11119 29.8048 7.11119 24.385C7.11119 15.2694 12.6196 8.21125 16.1872 8.21125C20.6626 8.21125 16.7144 16.5837 21.1898 16.5837C24.342 16.5837 24.7813 13.6207 24.7813 12.2583C24.7813 9.70773 22.0364 4.932 16.2045 4.932C6.8982 4.932 0 15.9357 0 25.3674C0 34.4296 6.41099 41.7298 15.4058 41.7298C29.2954 41.7298 32.7645 27.4091 33.4873 19.3932C34.3792 19.6496 36.5783 20.0074 36.7926 20.2182C37.156 20.5709 36.0911 25.4325 36.0911 30.1106C36.0911 35.9768 38.0719 40.6732 42.8309 40.6732C45.8114 40.6732 48.2089 38.5729 49.4655 36.9593C51.397 39.3563 54.1859 40.6016 56.9095 40.6016C61.5979 40.6016 64.6796 37.7635 66.2331 35.4797C67.5403 38.9099 70.2147 40.6016 72.6348 40.6016C76.012 40.6016 78.046 36.198 78.1632 35.4862C79.1855 38.5586 81.5683 40.6732 84.2573 40.6732C87.6638 40.6732 89.7072 37.675 90.5419 35.8012C91.7492 38.9672 93.6795 40.6732 96.447 40.6732C99.6166 40.6732 101.713 37.8754 102.654 35.9963C103.657 38.7369 105.318 40.6732 107.974 40.6732C111.528 40.6732 113.734 37.1545 114.471 35.36C115.639 38.3855 117.47 40.5652 120.274 40.5652C123.406 40.5652 126.122 36.2163 127.746 31.2961C129.159 32.5912 130.95 33.4228 132.87 33.6748C134.448 38.0927 138.142 40.5639 142.033 40.5639C148.834 40.5639 151.444 33.7829 151.722 32.194C152 30.6038 150.437 28.6584 149.915 29.1646Z" fill="white"/>
</svg>
