<svg width="140" height="61" viewBox="0 0 140 61" fill="none" xmlns="http://www.w3.org/2000/svg">
<path d="M40.0626 43.5429C37.7527 43.3612 35.7358 42.8517 34.1261 42.0431C31.6739 40.8114 29.8715 38.7388 29.0147 36.1656C28.3549 34.1838 28.3011 32.6234 28.8218 30.5672C29.6851 27.1576 31.8789 24.2656 35.3732 21.9306C37.5943 20.4464 39.8519 19.4644 42.6444 18.7679C45.8674 17.964 48.3346 17.9114 51.6031 18.5768C57.2371 19.7237 60.485 22.6466 61.0693 27.0956C61.1924 28.0324 61.1132 29.902 60.9095 30.8697C60.3613 33.4746 58.8853 35.9742 56.5832 38.1961C53.5251 41.1477 49.4469 42.92 44.5275 43.4352C43.7215 43.5196 40.6946 43.5926 40.0626 43.5429ZM44.9693 37.4367C47.6077 37.0917 49.7008 36.0905 51.3077 34.4049C52.2913 33.373 52.9615 32.2179 53.2714 31.0207C53.4672 30.264 53.4852 28.9718 53.3093 28.3033C52.7243 26.0812 50.8072 24.7063 47.6268 24.2282C46.2651 24.0235 45.1846 24.094 43.6112 24.4904C40.9828 25.1525 38.6115 26.6775 37.3661 28.5067C36.383 29.9507 35.9767 31.6191 36.2743 32.9896C36.4317 33.7146 36.9505 34.8103 37.3793 35.3232C38.3132 36.4404 39.7008 37.1734 41.3745 37.4334C42.2675 37.5722 43.9217 37.5737 44.9693 37.4367ZM11.1167 43.2846C6.02431 42.3804 2.39217 39.6915 1.33089 36.0403C1.08287 35.187 0.976115 34.2914 0.976564 33.0677C0.977256 31.1806 1.25099 29.7336 1.91732 28.0949C4.00774 22.9538 9.39647 19.1694 16.0367 18.179C16.7987 18.0654 17.7848 18.0458 24.0383 18.0205C27.9611 18.0046 31.1707 18.002 31.1706 18.0147C31.1705 18.0274 30.835 19.3455 30.4249 20.9438L29.6793 23.8499L23.4439 23.8891C17.3006 23.9277 17.1963 23.9309 16.3803 24.1022C13.8426 24.6351 11.734 25.6703 10.3599 27.0578C9.59245 27.8327 9.09979 28.6239 8.76179 29.6243C8.54661 30.2611 8.51559 30.4608 8.48446 31.4093C8.43447 32.9325 8.64692 33.8293 9.30339 34.8661C9.8898 35.7922 10.8689 36.5196 12.128 36.9645C13.3419 37.3934 13.4467 37.3989 20.2868 37.3989H26.5614L26.514 37.6443C26.488 37.7792 26.1869 39.1294 25.845 40.6447L25.2234 43.3998L18.5673 43.4128C12.3662 43.4249 11.8569 43.4161 11.1167 43.2846ZM57.3548 43.3809C57.3557 43.2214 59.5442 38.9535 60.0933 38.0405C62.5006 34.038 64.7704 31.6631 67.484 30.3078C68.4429 29.8289 69.2574 29.5951 71.441 29.172C74.2925 28.6195 77.8533 27.8661 79.2626 27.5173C81.3515 27.0002 82.2111 26.6657 82.5825 26.2255C82.7585 26.0169 82.7815 25.9244 82.7815 25.4268C82.7815 24.7456 82.6488 24.3956 82.3131 24.1915C82.0656 24.0409 81.9562 24.0391 73.0417 24.0389L64.0208 24.0386L63.9733 23.7555C63.7461 22.4039 62.9368 21.1541 61.0828 19.2925C60.4058 18.6126 59.8518 18.0437 59.8518 18.0282C59.8518 18.0127 64.9003 18.0002 71.0707 18.0004C83.3343 18.0009 82.8691 17.9857 84.6311 18.4455C87.0791 19.0843 88.8483 20.3125 89.6666 21.9412C90.1074 22.8184 90.2242 23.459 90.1777 24.7444C90.1356 25.9099 89.9993 26.5618 89.5951 27.5302C88.8872 29.2263 87.2385 30.8837 85.1275 32.0213C83.8903 32.688 81.9155 33.3489 80.865 33.4479C79.8955 33.5393 79.8052 33.885 80.6436 34.2952C81.4438 34.6867 82.3412 35.3212 83.0978 36.0305C84.3421 37.1971 85.1358 38.4618 85.3855 39.6757C85.5434 40.4435 85.6154 41.7923 85.5471 42.7016L85.4917 43.4375H76.7867L76.8352 43.2448C77.0749 42.2922 77.1696 40.6988 77.0301 39.9652C76.8169 38.8436 74.5754 36.6335 72.7814 35.7759C72.106 35.4531 71.8859 35.4477 71.2999 35.7397C70.01 36.3827 68.0852 39.0025 66.3513 42.4751L65.8708 43.4375H61.6127C59.2707 43.4375 57.3546 43.412 57.3548 43.3809ZM88.4547 43.3811C88.4534 43.3499 89.7376 37.6263 91.3086 30.6621L94.165 18H105.689C112.028 18 117.214 18.017 117.214 18.0377C117.214 18.0717 116.06 23.3869 115.965 23.7933L115.925 23.9631H108.131C103.845 23.9631 100.338 23.9733 100.338 23.9859C100.338 23.9984 100.151 24.9392 99.9221 26.0766C99.6931 27.214 99.5058 28.1718 99.5058 28.2051C99.5058 28.2384 102.4 28.2656 105.938 28.2656C109.476 28.2656 112.371 28.2911 112.372 28.3222C112.373 28.3533 112.109 29.5761 111.786 31.0394L111.198 33.7L104.685 33.7002L98.1732 33.7003L97.78 35.5379C97.5638 36.5486 97.3869 37.4148 97.3869 37.4627C97.3869 37.5281 99.311 37.5499 105.068 37.5499C112.335 37.5499 112.749 37.557 112.745 37.682C112.742 37.7546 112.461 39.0709 112.119 40.6069L111.498 43.3998L99.9777 43.4189C93.6414 43.4294 88.4561 43.4124 88.4547 43.3811ZM114.338 43.3378C114.338 43.2679 119.646 20.4918 120.203 18.1698L120.244 18H123.956C127.456 18 127.665 18.0075 127.627 18.1321C127.554 18.3718 123.344 37.226 123.344 37.3134C123.344 37.3766 125.44 37.3989 131.365 37.3989C135.777 37.3989 139.387 37.4168 139.387 37.4387C139.387 37.4822 138.39 42.1077 138.204 42.928L138.088 43.4375H126.213C116.42 43.4375 114.338 43.42 114.338 43.3378Z" fill="white"/>
</svg>
