<svg width="153" height="61" viewBox="0 0 153 61" fill="none" xmlns="http://www.w3.org/2000/svg">
<path d="M3.74179 13.8629C2.39706 17.883 1.28542 21.1831 1.27347 21.2119C1.26151 21.235 4.84745 21.2465 9.2462 21.2407L17.2428 21.2234L18.9342 16.1839C19.8606 13.4136 20.9662 10.1134 21.3906 8.85213L22.1556 6.56562H14.1709H6.1862L3.74179 13.8629Z" fill="white"/>
<path d="M22.2305 6.60602C22.2305 6.63481 23.3302 9.92922 24.6749 13.9378L27.1193 21.2235L35.104 21.2408C40.5845 21.2466 43.0887 21.235 43.0887 21.1947C43.0887 21.1486 39.682 10.989 38.3313 7.00918L38.1759 6.5657H30.2032C25.8164 6.5657 22.2305 6.58298 22.2305 6.60602Z" fill="white"/>
<path d="M65.8036 15.6101C65.5646 15.6619 65.1163 15.8289 64.8115 15.9787C63.8553 16.4337 62.9767 17.3552 62.6121 18.294C62.4568 18.6856 55.3984 42.046 55.3984 42.1612C55.3984 42.2015 56.1634 42.2188 57.7173 42.2188H60.0303L61.0403 38.9186C61.5961 37.1101 62.0862 35.5378 62.128 35.4341L62.2057 35.2498H66.9571C70.5012 35.2498 71.7204 35.2671 71.7503 35.3189C71.7742 35.3535 72.2523 36.9143 72.8141 38.7861L73.8361 42.19L76.155 42.2072C77.428 42.213 78.468 42.2072 78.468 42.19C78.468 42.0978 71.326 18.5877 71.2005 18.2709C70.6984 16.9808 69.4912 15.9614 68.0448 15.6101C67.4293 15.4603 66.4312 15.4603 65.8036 15.6101ZM67.0647 19.8778C67.1364 20.0045 70.6387 31.6789 70.6387 31.7999C70.6387 31.9036 70.5072 31.9093 66.9691 31.9093C64.8055 31.9093 63.2815 31.8863 63.2636 31.8575C63.2277 31.8056 66.6822 20.1658 66.8137 19.8836C66.8794 19.7396 66.981 19.7396 67.0647 19.8778Z" fill="white"/>
<path d="M142.271 15.5541C140.765 15.7384 139.205 16.4007 137.998 17.3625C136.265 18.7563 134.872 21.2214 134.209 24.0896C133.641 26.5316 133.492 29.9354 133.85 32.3083C134.197 34.5948 135.195 37.2039 136.414 38.9951C136.856 39.6517 137.753 40.5732 138.369 41.0166C141.482 43.2398 145.726 43.1246 148.696 40.7402C150.65 39.1736 152.115 36.3457 152.694 33.0168C152.939 31.6172 152.969 31.1737 152.969 29.0255C152.969 27.1709 152.951 26.8138 152.832 25.9845C152.336 22.4885 151.152 19.7873 149.3 17.95C148.672 17.328 148.158 16.9363 147.459 16.5505C145.917 15.7038 144.028 15.341 142.271 15.5541ZM144.184 18.9176C144.877 19.0961 145.576 19.5742 146.108 20.2423C147.029 21.3942 147.901 23.9456 148.188 26.3415C148.296 27.2458 148.319 30.7936 148.218 31.6172C148.003 33.4257 147.554 35.0959 146.879 36.5703C146.102 38.2694 144.835 39.2255 143.359 39.2197C142.199 39.2139 141.237 38.6553 140.365 37.4746C139.558 36.3803 138.703 33.6618 138.476 31.4502C138.38 30.4999 138.398 27.2919 138.512 26.3761C138.733 24.5158 139.289 22.5806 140 21.1638C140.598 19.9831 141.488 19.1825 142.498 18.9176C142.917 18.8139 143.747 18.8082 144.184 18.9176Z" fill="white"/>
<path d="M114.566 29.0296V42.2188H116.808H119.049L119.061 35.8661L119.079 29.5191L119.527 29.306C120.627 28.7762 122.037 28.4421 123.203 28.4306C123.956 28.4248 123.991 28.4306 124.386 28.6092C124.912 28.851 125.39 29.306 125.641 29.8186L125.832 30.2103L125.85 36.2116L125.862 42.2188H128.109H130.351L130.327 36.1252C130.309 30.2103 130.303 30.0202 130.183 29.5191C129.89 28.2981 129.346 27.3651 128.444 26.5473C126.914 25.1592 125.001 24.7273 122.605 25.2284C121.607 25.4415 120.435 25.8907 119.521 26.4148C119.007 26.7085 119.049 27.1866 119.049 21.1679V15.8404H116.808H114.566V29.0296Z" fill="white"/>
<path d="M102.913 22.3501C102.913 24.1471 102.889 25.155 102.853 25.2298C102.793 25.3335 102.71 25.3393 101.389 25.3393H99.9844V27.0095V28.6798H101.353C102.411 28.6798 102.734 28.697 102.781 28.7546C102.829 28.8065 102.853 30.3385 102.865 33.869C102.889 39.5479 102.853 39.1332 103.373 40.1411C103.612 40.6076 103.744 40.7746 104.228 41.2354C104.706 41.7019 104.885 41.8286 105.363 42.059C106.224 42.4679 106.529 42.5312 107.724 42.5312C108.71 42.5312 109.254 42.4621 109.983 42.2606L110.204 42.1972V40.6882V39.1792L109.403 39.208C108.967 39.2196 108.513 39.2196 108.399 39.1965C108.065 39.1389 107.67 38.851 107.497 38.5342L107.336 38.252V33.5004C107.336 29.2211 107.347 28.7489 107.431 28.7143C107.485 28.697 108.13 28.6798 108.866 28.6798H110.204V27.0095V25.3393H108.8H107.395V22.4595V19.5798H105.154H102.913V22.3501Z" fill="white"/>
<path d="M1.192 21.3311C1.192 21.3427 1.08442 21.7113 0.952936 22.1547C-0.379837 26.6471 -0.266283 31.151 1.28762 35.2114C1.43704 35.5916 1.82551 36.4267 2.14825 37.0602C3.55872 39.8132 5.55489 42.1631 8.30411 44.2941C8.74637 44.6397 9.14083 44.9219 9.17071 44.9219C9.25438 44.9219 14.1253 30.3504 14.0595 30.2929C13.94 30.1892 1.25176 21.3081 1.22188 21.3081C1.20395 21.3081 1.192 21.3196 1.192 21.3311Z" fill="white"/>
<path d="M36.6868 25.7952C33.1546 28.2718 30.262 30.3164 30.25 30.3394C30.2381 30.3797 35.1149 44.9166 35.1568 44.9569C35.1628 44.9627 35.4915 44.7265 35.8859 44.4271C40.3803 41.0002 43.1893 36.6288 44.0439 31.7332C44.271 30.4201 44.3129 29.8787 44.3069 28.2775C44.3069 26.5267 44.2053 25.5706 43.8646 23.9464C43.6913 23.1343 43.255 21.5505 43.1534 21.3835C43.1235 21.3201 41.4919 22.4374 36.6868 25.7952Z" fill="white"/>
<path d="M81.0005 31.5984L81.0184 37.8647L81.1559 38.3254C81.9507 41.0036 84.3414 42.6681 87.228 42.5356C88.9553 42.4607 90.6407 41.9193 92.1348 40.9633C92.4097 40.7905 92.6667 40.658 92.7086 40.6753C92.7504 40.6868 92.8998 41.0439 93.0432 41.4586L93.3002 42.2131H95.0633H96.8204V33.7755V25.3379H94.5792H92.338V27.7684C92.338 29.1103 92.3201 31.9785 92.2962 34.1441L92.2603 38.0835L91.7463 38.3139C90.312 38.9475 88.4473 39.3161 87.5388 39.1318C86.5348 38.9302 85.7459 38.1757 85.5307 37.2139C85.4829 37.0008 85.465 35.1923 85.465 31.1261V25.3379H83.2237H80.9766L81.0005 31.5984Z" fill="white"/>
<path d="M15.7077 40.4883C12.1755 42.9591 9.29481 44.9979 9.30079 45.0152C9.31872 45.0555 22.0428 53.9654 22.1384 54C22.1922 54.023 34.7669 45.2859 35.0359 45.0382C35.0837 44.9979 22.2879 35.9959 22.1803 35.9959C22.1504 35.9959 19.2338 38.0175 15.7077 40.4883Z" fill="white"/>
</svg>
