<svg width="82" height="60" viewBox="0 0 82 60" fill="none" xmlns="http://www.w3.org/2000/svg">
<path fill-rule="evenodd" clip-rule="evenodd" d="M5.51557 32.6793C5.88451 32.9452 6.2931 33.1512 6.72628 33.2897C7.5835 33.5603 8.50327 33.5601 9.36041 33.2893C9.79597 33.1513 10.207 32.9455 10.5783 32.6793C10.9527 32.4097 11.2819 32.0823 11.5534 31.7093C12.0851 30.9746 12.3707 30.0906 12.3693 29.1837C12.3693 28.7383 12.3021 28.2907 12.1651 27.8602C11.8854 26.9788 11.3297 26.2107 10.5801 25.6694C10.2092 25.4022 9.79822 25.1958 9.36253 25.0576C8.50399 24.7856 7.58236 24.7854 6.72373 25.0572C5.84543 25.3385 5.08099 25.895 4.54351 26.6444C4.27714 27.0156 4.07124 27.4267 3.93347 27.8624C3.79734 28.2929 3.73013 28.7395 3.73013 29.1837C3.73013 29.6278 3.79692 30.0698 3.93305 30.4965C4.21292 31.3749 4.76771 32.1401 5.51557 32.6793ZM14.8758 8.02344H1.20703L8.05568 23.5398L14.8758 8.02344Z" fill="white"/>
<path fill-rule="evenodd" clip-rule="evenodd" d="M19.216 45.4181C19.2155 45.8392 19.1326 46.2561 18.9718 46.6454C18.6457 47.4305 18.0217 48.0545 17.2366 48.3806C16.8473 48.5413 16.4304 48.6241 16.0093 48.6244H15.3593C14.9398 48.6244 14.5199 48.541 14.132 48.3806C13.3467 48.0547 12.7226 47.4307 12.3967 46.6454C12.2361 46.2561 12.1532 45.8392 12.153 45.4181L12.1474 38.1453L4.75 38.1351V43.6258C4.75 44.7425 4.97291 45.8596 5.39917 46.8913C5.82853 47.9264 6.45714 48.8671 7.24927 49.6598C8.0419 50.4518 8.98243 51.0802 10.0174 51.5095C11.053 51.9373 12.1624 52.158 13.2828 52.1591H17.8564C18.9731 52.1591 20.0898 51.9362 21.1218 51.5095C22.1568 51.0803 23.0974 50.4518 23.89 49.6598C24.6822 48.8672 25.3108 47.9265 25.7401 46.8913C26.1678 45.8557 26.3883 44.7463 26.3892 43.6258V8.0519L19.2126 8.06211L19.216 45.4181ZM73.8899 38.1453L73.884 44.6026C73.884 45.022 73.8001 45.4423 73.6406 45.8299C73.4791 46.2187 73.2428 46.5721 72.9451 46.87C72.6475 47.1679 72.294 47.4041 71.905 47.5651C71.5157 47.7259 71.0988 47.8089 70.6777 47.8093H70.0281C69.6069 47.8088 69.19 47.7259 68.8007 47.5651C68.4117 47.4041 68.0582 47.1679 67.7606 46.87C67.4641 46.5735 67.2255 46.2174 67.0651 45.8299C66.9047 45.4423 66.8209 45.0224 66.8209 44.6026L66.8243 8.06211L59.6481 8.0519L59.6506 51.2436H80.793L80.799 38.1351L73.8899 38.1453ZM53.6677 31.6744C53.3133 30.8354 52.7983 30.0738 52.1516 29.4325C51.5474 28.8334 50.8222 28.3704 50.0245 28.0746C50.6882 27.7561 51.2975 27.3348 51.8299 26.8264C52.3723 26.3113 52.8509 25.7008 53.1734 25.0125C53.4972 24.3182 53.665 23.5614 53.6652 22.7953L53.6694 14.9342C53.6694 14.0255 53.4882 13.1164 53.1419 12.2779C52.7956 11.4394 52.2821 10.672 51.6406 10.0309C51 9.38981 50.233 8.87592 49.3949 8.52878C48.5568 8.18165 47.6486 8 46.7395 8H32.4679V51.2457H47.2828C48.6533 51.2456 49.9931 50.8392 51.1327 50.0777C52.2723 49.3163 53.1605 48.234 53.6851 46.9678C54.0326 46.1255 54.2118 45.2232 54.2127 44.312C54.2127 40.9976 54.2041 37.6837 54.2127 34.3698C54.2126 33.444 54.0273 32.5275 53.6677 31.6744ZM39.4314 11.7257L43.1873 11.713C43.6085 11.7126 44.0256 11.7954 44.4147 11.9566C44.8038 12.1178 45.1572 12.3542 45.4548 12.6523C45.7521 12.9492 45.9899 13.3048 46.1503 13.6924C46.3107 14.0799 46.3928 14.4998 46.3945 14.9197L46.4145 23.5899C46.4147 24.1167 46.2585 24.6318 45.9659 25.0698C45.6732 25.5078 45.2571 25.8491 44.7703 26.0505C44.447 26.1833 44.101 26.2522 43.7514 26.2534L39.4314 26.27V11.7257ZM46.4834 45.6427C46.3497 45.9658 46.1535 46.2594 45.9062 46.5066C45.6589 46.7538 45.3653 46.9499 45.0421 47.0835C44.7189 47.2167 44.3728 47.2857 44.0233 47.2865L39.4318 47.3031V30.1557L43.4592 30.1429C43.8804 30.1424 44.2975 30.2251 44.6866 30.3863C45.0758 30.5475 45.4292 30.784 45.7266 31.0822C46.0231 31.3787 46.2618 31.7348 46.4221 32.1224C46.5825 32.5099 46.6655 32.9298 46.6663 33.3497L46.6863 44.6238C46.6859 44.9734 46.617 45.3196 46.4834 45.6427Z" fill="white"/>
</svg>
