<svg width="210" height="61" viewBox="0 0 210 61" fill="none" xmlns="http://www.w3.org/2000/svg">
<path d="M71.5953 18.1367C74.4172 18.1367 76.6484 19.1227 78.2234 21.033L76.2547 22.3271C75.0734 20.8481 73.4984 20.047 71.5297 20.047C69.9547 20.047 68.6422 20.4168 67.6578 21.2178C66.6734 22.0189 66.1484 23.0665 66.0828 24.3606C66.0828 25.5314 66.4766 26.4558 67.1984 27.1952C67.9859 27.9347 69.2984 28.5509 71.1359 29.0439C73.6297 29.7218 75.2703 30.338 76.0578 30.8926C76.9109 31.4472 77.5016 32.0634 77.9609 32.8645C78.3547 33.6656 78.6172 34.5899 78.6172 35.7608C78.6172 37.6094 77.8953 39.15 76.5172 40.3208C75.1391 41.4917 73.3016 42.1079 71.0703 42.1695C67.5922 42.1695 64.9672 40.9987 63.1953 38.7186L65.3609 37.363C66.5422 39.2733 68.4453 40.1976 70.9391 40.2592C72.5797 40.2592 73.8922 39.8279 74.8766 38.9651C75.8609 38.1024 76.3859 37.0548 76.3859 35.7608C76.3859 35.0213 76.2547 34.4051 75.9266 33.9121C75.6641 33.4191 75.2047 32.9878 74.6141 32.6796C74.0234 32.3099 73.3016 32.0018 72.3828 31.6937C71.4641 31.3856 70.4141 31.0775 69.2328 30.7077C67.3953 30.1531 66.0172 29.352 65.1641 28.3661C64.3109 27.3801 63.8516 26.086 63.8516 24.4838C63.8516 22.6352 64.5734 21.1562 66.0828 19.9854C67.5922 18.8146 69.2984 18.1367 71.5953 18.1367ZM101.52 18.7529V20.6632H88.9203V28.7974H100.733V30.7077H88.9203V39.5814H102.045V41.4917H86.6234V18.7529H101.52ZM112.873 18.7529L127.705 38.7186H127.77V18.7529H130.067V41.5533H127.18L112.348 21.5876H112.217V41.5533H109.92V18.7529H112.873ZM154.48 18.7529V20.6632H141.88V28.7974H153.692V30.7077H141.88V39.5814H155.005V41.4917H139.583V18.7529H154.48ZM173.839 18.1367C177.448 18.1367 180.205 19.3075 182.239 21.7108L180.402 23.1898C179.745 22.2038 178.827 21.4643 177.645 20.9097C176.53 20.3551 175.217 20.1086 173.839 20.1086C170.82 20.1086 168.327 21.033 166.423 22.9433C164.52 24.792 163.536 27.2569 163.536 30.2147C163.536 33.1726 164.52 35.5759 166.423 37.4246C168.327 39.2733 170.82 40.2592 173.839 40.2592C175.152 40.2592 176.464 39.9511 177.842 39.3349C179.22 38.7187 180.27 37.8559 181.058 36.6851L182.895 37.9792C180.73 40.7522 177.711 42.1695 173.839 42.1695C170.098 42.1695 167.08 40.9987 164.783 38.7803C162.486 36.5002 161.305 33.6656 161.239 30.2147C161.239 26.7023 162.42 23.8676 164.783 21.6492C167.145 19.4308 170.164 18.1983 173.839 18.1367ZM192.805 33.5424H203.961L198.448 21.033L192.805 33.5424ZM199.761 18.7529L209.998 41.5533H207.439L204.814 35.5143H191.952L189.195 41.5533H186.833L197.464 18.7529H199.761Z" fill="white"/>
<path fill-rule="evenodd" clip-rule="evenodd" d="M25.7225 25.5344C25.46 25.5344 25.1975 25.2879 25.1319 24.9797L24.0163 11.7309C23.6881 8.28003 24.41 6 25.7225 6C27.1006 6 27.7569 8.28003 27.4288 11.7309L26.3131 24.9797C26.2475 25.3495 25.985 25.5344 25.7225 25.5344Z" fill="white"/>
<path fill-rule="evenodd" clip-rule="evenodd" d="M25.7231 34.7773C25.9856 34.7773 26.2481 35.0238 26.3138 35.3319L27.4294 48.5808C27.7575 52.0317 27.0356 54.3117 25.7231 54.3117C24.345 54.3117 23.6888 52.0317 24.0169 48.5808L25.1325 35.3319C25.1325 34.9622 25.395 34.7773 25.7231 34.7773Z" fill="white"/>
<path fill-rule="evenodd" clip-rule="evenodd" d="M30.582 30.1527C30.582 29.9062 30.8445 29.6597 31.1727 29.5981L45.282 28.5505C48.957 28.2424 51.3851 28.9202 51.3851 30.1527C51.3851 31.4468 48.957 32.063 45.282 31.7549L31.1727 30.7073C30.8445 30.6457 30.582 30.3992 30.582 30.1527Z" fill="white"/>
<path fill-rule="evenodd" clip-rule="evenodd" d="M20.8031 30.157C20.8031 30.4034 20.5406 30.6499 20.2125 30.7116L6.10313 31.7591C2.42813 32.0673 0 31.3894 0 30.157C0 28.8629 2.42813 28.2467 6.10313 28.5548L20.2125 29.6024C20.5406 29.664 20.8031 29.9105 20.8031 30.157Z" fill="white"/>
<path fill-rule="evenodd" clip-rule="evenodd" d="M31.2386 23.6894C31.0417 23.5045 30.9761 23.1964 31.1073 23.0116L37.5386 15.432C39.1792 13.4601 40.9511 12.7206 41.8699 13.6449C42.8542 14.5693 42.0667 16.1715 39.9667 17.712L31.8948 23.751C31.7636 23.9359 31.4355 23.8743 31.2386 23.6894Z" fill="white"/>
<path fill-rule="evenodd" clip-rule="evenodd" d="M19.0987 35.0873C19.2956 35.2722 19.3612 35.5803 19.23 35.7652L12.7987 43.3447C11.1581 45.3167 9.3862 46.0561 8.46745 45.1318C7.48308 44.2074 8.27058 42.6053 10.3706 41.0647L18.4425 35.0257C18.5737 34.8408 18.9018 34.9024 19.0987 35.0873Z" fill="white"/>
<path fill-rule="evenodd" clip-rule="evenodd" d="M31.2392 35.0858C31.4361 34.9009 31.7642 34.8393 31.9611 34.9626L40.0329 41.0016C42.1329 42.5421 42.9204 44.2059 41.9361 45.0687C40.9517 45.993 39.2454 45.2535 37.6048 43.2816L31.1736 35.702C30.9767 35.5788 31.0423 35.2707 31.2392 35.0858Z" fill="white"/>
<path fill-rule="evenodd" clip-rule="evenodd" d="M19.094 23.6864C18.8971 23.8712 18.569 23.9329 18.3721 23.8096L10.3003 17.7706C8.20026 16.23 7.41276 14.5662 8.39714 13.7035C9.38151 12.7792 11.0878 13.5187 12.7284 15.4906L19.1596 23.0701C19.3565 23.1934 19.2909 23.5015 19.094 23.6864Z" fill="white"/>
</svg>
