<svg width="162" height="61" viewBox="0 0 162 61" fill="none" xmlns="http://www.w3.org/2000/svg">
<path d="M17.0991 11.4725C14.6906 11.6697 12.3662 12.1557 10.4632 12.846C4.5717 14.9872 0.906162 19.002 0.0986202 24.1861C-0.0277777 24.982 -0.00671134 27.243 0.140753 28.1939C0.716566 32.0185 3.16026 35.4417 6.93113 37.6886C9.71891 39.3438 13.1036 40.3581 17.0079 40.7103C18.328 40.83 21.9093 40.7103 23.2084 40.499C25.9329 40.0623 28.0115 39.4284 30.1251 38.3789C33.7696 36.5828 36.4029 33.8287 37.5967 30.5746C38.0742 29.2715 38.3059 28.0741 38.3551 26.5809C38.5868 19.9459 34.1699 14.635 26.579 12.4234C25.4695 12.0994 23.9738 11.7965 22.5764 11.6134C21.3335 11.4443 18.335 11.3739 17.0991 11.4725ZM22.1551 16.3678C27.7798 17.2552 31.3329 19.8825 32.3863 23.9325C32.5478 24.5453 32.5618 24.7425 32.5618 26.0526C32.5618 27.6374 32.5056 28.053 32.1335 29.0743C30.8344 32.6525 27.4848 34.9487 22.3517 35.7868C21.0596 35.9981 17.4432 36.0193 16.1863 35.8221C11.7483 35.1247 8.72879 33.4202 6.97326 30.6239C5.302 27.9614 5.30902 24.2425 6.99433 21.5025C7.50694 20.6573 8.88327 19.2697 9.79615 18.664C11.7904 17.3327 14.2271 16.5509 17.3449 16.2339C18.0682 16.1635 21.4458 16.2551 22.1551 16.3678Z" fill="white"/>
<path d="M58.2161 11.4788C54.3188 11.8099 50.9131 12.8593 47.9147 14.6554C47.4231 14.9513 47.0088 15.1696 46.9878 15.1485C46.9667 15.1274 46.9456 14.578 46.9456 13.9229V12.7396H44.0666H41.1875V31.3698V50H44.0666H46.9456V43.4847C46.9456 39.8995 46.9667 36.9694 46.9878 36.9694C47.0088 36.9694 47.3318 37.1596 47.704 37.3991C51.4187 39.7305 56.0533 40.8856 61.1654 40.7518C66.2705 40.6109 70.4767 39.322 74.0088 36.8004C74.8304 36.2158 76.1927 34.9198 76.8387 34.1168C78.826 31.6375 79.8512 28.334 79.6054 25.2208C79.3456 22.023 78.18 19.4028 75.982 17.1136C72.464 13.451 66.6918 11.3661 60.2244 11.4084C59.5082 11.4154 58.6023 11.4506 58.2161 11.4788ZM62.4715 16.2614C63.8829 16.4022 65.498 16.7403 66.7129 17.1418C67.5064 17.4095 69.1846 18.2336 69.8798 18.6914C71.4387 19.7339 72.7027 21.3116 73.3417 23.0302C73.7771 24.1783 73.8614 24.7841 73.8192 26.4041C73.7841 27.8903 73.6928 28.3552 73.2083 29.5385C72.0216 32.377 69.29 34.4337 65.3787 35.4198C63.567 35.8777 62.942 35.9411 60.3579 35.9411C58.3074 35.9411 57.9844 35.927 57.1698 35.7861C54.6559 35.3494 52.6616 34.6098 51.0114 33.511C49.8106 32.7081 48.4905 31.2501 47.8936 30.0667C46.7631 27.8198 46.6858 24.9109 47.704 22.5372C48.5186 20.6566 50.2671 18.9238 52.4369 17.8603C54.0309 17.0714 56.2008 16.4797 58.2512 16.2684C59.1079 16.1839 61.6218 16.1769 62.4715 16.2614Z" fill="white"/>
<path d="M99.5403 11.4788C97.1036 11.6901 94.688 12.2043 92.7288 12.9298C91.8511 13.2467 89.6953 14.3174 88.9158 14.8104C88.5718 15.0288 88.2838 15.2048 88.2628 15.2048C88.2487 15.2048 88.2347 14.6484 88.2347 13.9722V12.7396H85.3556H82.4766V31.3698V50H85.3556H88.2347V43.4847C88.2347 39.8995 88.2487 36.9694 88.2628 36.9694C88.2838 36.9694 88.5928 37.1596 88.9509 37.392C91.4789 39.0402 94.9619 40.1954 98.7327 40.6462C99.8633 40.78 103.873 40.7518 104.982 40.6039C111.295 39.7587 116.07 37.2019 118.725 33.2434C119.68 31.8135 120.382 30.0808 120.691 28.3904C120.909 27.1789 120.909 24.9531 120.691 23.7628C119.462 17.1841 113.514 12.6269 104.772 11.5704C103.74 11.4436 100.544 11.3872 99.5403 11.4788ZM104.666 16.367C108.753 17.008 111.724 18.5505 113.486 20.9453C115.052 23.0725 115.53 25.9322 114.778 28.658C114.701 28.9468 114.462 29.5314 114.252 29.9611C112.735 33.0603 109.399 35.1029 104.666 35.8213C104.034 35.9129 103.374 35.9411 101.612 35.9411C99.1822 35.9481 98.5923 35.8847 96.8087 35.448C92.7429 34.4478 89.8849 32.2221 88.7894 29.2145C88.3541 28.01 88.2768 27.5592 88.2838 26.0519C88.2838 24.8123 88.3049 24.615 88.4664 23.9952C89.1827 21.2764 90.8118 19.3324 93.5715 17.9237C95.2217 17.0784 97.0474 16.5713 99.3998 16.2896C100.509 16.1628 103.662 16.205 104.666 16.367Z" fill="white"/>
<path d="M140.617 11.4794C135.674 11.8809 131.292 13.5432 128.251 16.1775C125.66 18.4103 124.066 21.3615 123.687 24.5875C123.575 25.5947 123.645 27.6374 123.827 28.5389C124.242 30.5604 125 32.2438 126.25 33.9061C126.756 34.5823 128.034 35.8783 128.715 36.4207C131.713 38.7732 135.505 40.1749 140.259 40.675C142.183 40.8792 145.814 40.7243 147.745 40.351C154.718 39.0127 159.549 35.4134 161.332 30.2364C161.705 29.1517 161.887 28.2079 161.964 26.9893C162.217 23.0097 160.869 19.5443 157.983 16.748C154.844 13.7122 150.35 11.9091 144.802 11.4724C143.756 11.3879 141.685 11.3949 140.617 11.4794ZM145.982 16.3958C147.042 16.5649 148.496 16.9171 149.325 17.2129C150.146 17.5087 151.473 18.1779 152.204 18.6709C153.018 19.2133 154.036 20.1782 154.605 20.9389C155.146 21.6715 155.729 22.8759 155.961 23.7282C156.185 24.5593 156.277 25.8412 156.199 26.9541C155.932 30.652 153.222 33.6737 148.903 35.0965C147.021 35.7163 145.203 35.984 142.892 35.984C141.228 35.984 140.294 35.9065 138.967 35.667C135.969 35.1106 133.644 33.9977 131.945 32.2861C130.646 30.9901 129.916 29.68 129.55 28.0036C129.382 27.25 129.347 25.5384 129.473 24.6791C130.168 20.1289 134.248 17.0016 140.407 16.2972C141.727 16.1493 144.704 16.1986 145.982 16.3958Z" fill="white"/>
</svg>
