<svg width="156" height="60" viewBox="0 0 156 60" fill="none" xmlns="http://www.w3.org/2000/svg">
<path d="M27.3697 15.788L16.22 9.39398L5.07031 15.788V9.39398L16.22 3L27.3697 9.39398V15.788Z" fill="white"/>
<path d="M5.07031 21.1604H10.9083V35.2557C10.9083 38.8924 13.636 40.6751 16.22 40.6751C18.8041 40.6751 21.5317 38.8448 21.5317 35.2081V21.1604H27.3697V35.5884C27.3697 38.9399 26.3169 41.5308 24.1875 43.3135C22.058 45.0962 19.4022 45.9519 16.1722 45.9519C12.9421 45.9519 10.2863 45.0962 8.20467 43.3135C6.12307 41.5308 5.07031 39.035 5.07031 35.731C5.07031 35.7548 5.07031 21.1604 5.07031 21.1604ZM77.8783 38.7022C76.1077 40.271 74.0979 41.0316 71.801 41.0316C67.6139 41.0316 64.7906 38.6547 64.4795 34.9942H83.3574C83.3574 34.9942 83.4771 33.8057 83.4771 32.6886C83.4771 29.242 82.3764 26.3659 80.1034 24.0127C77.8783 21.6595 74.9832 20.5186 71.466 20.5186C67.7574 20.5186 64.7188 21.6595 62.3022 24.0127C59.9335 26.3659 58.7372 29.4321 58.7372 33.259V33.4492C58.7372 37.2285 59.9335 40.271 62.3022 42.5053C64.6709 44.7634 67.8053 45.9044 71.6096 45.9044C76.036 45.9044 79.5771 44.1692 82.209 41.1742L77.8783 38.7022ZM66.7764 26.9126C68.0685 25.9143 69.6715 25.3676 71.466 25.3676C73.1648 25.3676 74.5525 25.8905 75.7728 26.9601C76.9212 27.9109 77.5433 29.0994 77.5912 30.4542H64.647C64.8145 29.0756 65.5323 27.8871 66.7764 26.9126ZM136.689 49.1608C134.321 54.7228 131.832 56.6006 128.028 56.6006H125.396V51.4664H127.526C128.841 51.4664 130.038 50.9673 131.21 48.3288L132.359 45.6667L122.357 21.1604H128.291L135.397 38.7973L142.695 21.1604H148.629L136.689 49.1608ZM50.1237 11.9141V23.3472C48.2096 21.6358 45.2427 20.6374 42.3476 20.6374C38.9261 20.6374 36.0311 21.8259 33.6623 24.2742C31.3415 26.6749 30.193 29.6461 30.193 33.2352C30.193 36.8244 31.3415 39.7956 33.6623 42.2439C36.0311 44.6446 38.9261 45.8331 42.3476 45.8331C46.2955 45.8331 48.8077 44.288 50.1237 43.0758V45.3101H55.9139V11.9141H50.1237ZM48.3771 38.5358C46.9654 39.9382 45.1949 40.6513 43.1133 40.6513C41.0317 40.6513 39.3568 39.9382 37.9452 38.5358C36.6053 37.1334 35.9114 35.3745 35.9114 33.259C35.9114 31.1435 36.5814 29.3846 37.9452 27.9822C39.3568 26.5798 41.0317 25.8667 43.1133 25.8667C45.1949 25.8667 46.9654 26.5798 48.3771 27.9822C49.8366 29.3846 50.5544 31.1435 50.5544 33.259C50.5544 35.3745 49.8366 37.1334 48.3771 38.5358ZM113.361 20.685C108.959 20.685 106.686 22.4915 105.107 24.2504C104.484 23.0619 102.714 20.685 98.5985 20.685C95.1053 20.685 93.0476 22.4439 92.0427 23.6799V21.1604H86.3004V45.3339H92.0427V31.4288C92.0427 28.1724 94.0764 25.8192 96.7801 25.8192C99.5317 25.8192 101.135 27.8871 101.135 31.1911V45.3339H106.877V31.4288C106.877 28.1248 108.863 25.8192 111.71 25.8192C114.462 25.8192 116.065 27.8871 116.065 31.1911V45.3339H121.855V30.3829C121.807 24.084 118.41 20.685 113.361 20.685Z" fill="white"/>
</svg>
